<mxfile host="app.diagrams.net" modified="2022-10-05T18:01:48.806Z" agent="5.0 (Macintosh; Intel Mac OS X 10_15_7) AppleWebKit/605.1.15 (KHTML, like Gecko) Version/16.0 Safari/605.1.15" etag="M6g4jpWbX1PCkwl66QCB" version="20.4.0" type="github">
  <diagram id="u74WXdkh7nYfuS4KA9xl" name="Page-1">
    <mxGraphModel dx="4074" dy="2623" grid="1" gridSize="10" guides="1" tooltips="1" connect="1" arrows="1" fold="1" page="1" pageScale="1" pageWidth="827" pageHeight="1169" math="0" shadow="0">
      <root>
        <mxCell id="0" />
        <mxCell id="1" parent="0" />
        <mxCell id="hi-wKvY39Key3fGmXc2b-197" value="" style="shape=image;verticalLabelPosition=bottom;labelBackgroundColor=default;verticalAlign=top;aspect=fixed;imageAspect=0;image=data:image/png,iVBORw0KGgoAAAANSUhEUgAAAJAAAACQCAYAAADnRuK4AAAAAXNSR0IArs4c6QAAAHhlWElmTU0AKgAAAAgABAEaAAUAAAABAAAAPgEbAAUAAAABAAAARgEoAAMAAAABAAIAAIdpAAQAAAABAAAATgAAAAAAAACQAAAAAQAAAJAAAAABAAOgAQADAAAAAQABAACgAgAEAAAAAQAAAJCgAwAEAAAAAQAAAJAAAAAA7bKyKQAAAAlwSFlzAAAWJQAAFiUBSVIk8AAADxBJREFUeAHtXQvQFlUZRlFuCaYWQnRxisAbaDoBw5RChpqWM1JTllNgUKOpzchUKN4+K5nyWmM5ViqKaRZDt5lC6cJFE51ElAoR4xYKiKKCxU2xnufnX1r2P+/unt2zu2e/fd+Z5/923/Oec9732bO75/Z9f7duKsqAMqAMKAPKgDKgDCgDyoAyoAwoA8qAMqAMKANNYKB7E4K0jLEP7A8A3rDMp+YNZuA4xH4nsBH4byd4fBfANBVlwMjA/tDeAOwGgoYT/XwTadcD+rQGCSr7MjADp9EGI53zCaWiDOxl4PM4khqLpD93b249aDQDfHWtBqSGIumZZ79GM6fBdzAwEn+lRpKkH6Uc/p8B3olNlBNzBH18jrxtl7WpDeitOa7kITnytl3WpjagTTmu5Es58mrWNmHgGMSR1NeR0plXRRno9gQ4kBqJpF+svCkDAQOn4ICzzFJjieppyzy+CqcXDgZ0mqHEK3Qp6oo2FOmctr5JTzh0MbAI2AXQ99c7z6nvBagUzMBElP8KIDUcptHGNxkOh1YCkt/UM12nHUBC0XIYKpAuBNN8k2FwaCsg+RzWb4Hdsb4F0I7+hEkPH/sWK/cqLQfCPiYdPw175lMpkAHpIhRYZaaiz0Muydc4PfPVRjgS6Fsbb/c4KpHvWxhz4JDka5z+Ad8CifrTA4qLgL8AOwAGsxN4CLgAYLrPIpHvm8+cRZd8jdNzh6W3whHBP4G4AFYgnZ0/X0Xy3Td/g+G65K+k583spdiMCDgkPtrLKOTG75u7z8EhqZHE6Z/3LRD6cyDwDBDneDTt77DvDvgmUT+Dc9/8nAWHAt9sPpnPueQd2n0BHg2x9IqLkb8A1gv5XoOed8tC4G+CTZPV9yD4T2UgYGaGPIVneRA12NwFtrb/QPnjC49iTwWSbyVVb1XNAlhL/pr0861KL9GYe2NMDrvW/RT1FL2uI/lcIp2pqxoAy9WA5HNYvwp2A1OXXLIhv70ZdrbI49+hriI3wEm+l0xp6ur6wzLpDcC5H9p5K+zHSMQXob+qQCYkfwus0knRtwjXgPrCJe8d/WjhHu5bwVScevs43tfV0s42CzVJesE8mzrvKOxeVHt2hqpvRJ41Qj5uWj8HMM0X9YF+AvAdQGUPA9I15L4g74VrXo8A0uPfpOcIIkl6wIDvb1N+Lo0UIaa6qPNd5sJBk++TfHc88O/dOFgrBBENbDXsBgUZEz65hyWan+cbEvJlTTbVRZ3PwkYi+T26DMf5BHEh70QhnOAaE1PYn5DG76OnbQDsn+02lPcmdN0N+rwqqbG44ijOv4OQeCowFOCoSXotIalDGP9xgNRINiGNfUVyVSs5Hd6yIXED00ZgGXA3MA7IItLdlaWspDwk21RfUr486ZzPuQ3YAZjqzqqblsepdsorEVhEjLyrefePAiYDdwDrgKJkLAouYiJ2BcrlYEMFDJTZgMok/CRUtismPinuJP3LKPPIMgPxvS6JMN/9jvPvMCS+CEixZdWz2zAkruImpklk1pmLm+G8FFcW/SqUdwnQswpSyhhh5ImLhJokj98c3XGSkt+Xeg/AiUuOel4DngN4Jz8ObANcC+e3+PTpZyiYE3+cmH0KSPqFWI5OXwDY3+H+KhWBAemOFMxj1R9BKkeEaV4f7J/MBSYAvQFX8lEUZIqJDYadahXHDJjIps5GzoDxEkAqK0nPO30KcCCQV85HAab6ZuUtWPObGTCRTV0a6QujnwNSGbZ6bm4blqbiGJsrBX++GZPH6yT2B9pR+C2RxcCnHQbHftMi4JwcZXKuySS1mzE2BeGjTnpKxPnKKX7Oh0h5Xei/GudATNoYpD0JRH1oQadSAANRooNzqSrOg7DPEtgV9cknRp4n0WjkD+8mbOFcpQAGpAZgqopD5KWAlMe1fifqGmFyxELHLwysBVoWedTUggHpopuKmA6lZF+U/hnUGZ3A6wUd55bYoNMIbWs7hN8vTYQV2vDCR2UlFIMjSnZw+fSROqkRc6enP0RprwBsBPSDDSKQzTjgxOACYDbAkZxKiQyYnhwcCkflfihMtr7p5sFPTmiqlMSAqQEcFal7AM65DGCy9VV3H/zN82PnEQr0VGIg2gC4VhWVi6CI2tXh/Fn43ZitF+wrHQyU3WfiAucvga8A3EPDrRBR4RcO69BgTD5ugO9DowG1yzlHFxcDiwAuLpIAvip4Tj1HG0ULfUgSdlRNF6cuuhXwv19SkHVLHw6HOdqJuwhMr/onZN+e4GOc/z6l3YU42kaGIZKtQBqCt8Du2AojZ0NP42cdbDg7XTuJ9mkOQATcoDTUIpLlsGWjS9oEZVFkF1NupWBjIQ4HDgLYP2K/7DKgHYR9uY/XPZDzEECWu5X5ipBRKHQmwIm6LH7VKQ/X194FVCW8SU8HrgBuAjjf9jHAah/UHGTIQvoDyOdS+AT8A5DFlzrnudAliRZlTYLtBoHvjdB/OW1Zm4RCki4KK3ElHLJvB5LqbMf0e12RmLIc7gebkZLre2CXuFQUDNdtLw5Xpl3IjSjEtu52sue6WZlyLSqz4e+6qHPRTjRnegdFjVKcr8+YL1z01ThphRUNPLblkU+ErEsiRyDvY0DiUwU2gbCfxoGMuCjMzd02LTKwzbsp/KyM9Qb1t8snJ2oXdmI2PlvAh4DojQ5Vh/Di/wwoM/7v76na/DfrhfyEubhUWt5BvPPKJKFudXG2WtrfzamXuSXyxz1QsbIAqTYEz48tLTmxBROb+pps+2dw9TYDpVwjXFcSjzsM9e+jGoCz1SmdWQW7gfvktjvpDfPNQJMbhW3sXEIabKD57JJ4/Leh7i6q/tA8mOAQ535ol0eyvjJtSW83e379up+B+HnQFR2r1UjxFsEh6l3Ij1BI0QG3a/n3GS7AadC9lBJcCsrCzXRDvaKqJVRCvQvhMDJLEJpnz8/XnZjjInBNMe2iecA3J3jfEa6TM5FViuldXqU/daqbQ3uuW2WVF5BximXmS2DPEfNeqboB9dnriR5kYeBMZOqbJWNnntvxORXgBGGc8Al0OXBb1KjqBkTHVLIzwJXykdmzd+Tk8sQY4OGOs65/HoFqDGDs+3ASqkrhCvB7q3SgDeoeghj+mDOOh5D/wwC3k7BBHgpwemUxsAYQpeoGxBlWbUDi5UmVYBrOp8poMOJkJJFa9k9tWYzhwmKKbVSpiTPDRbKR1IC4uGcSV0+u35gKV50VA1ZPDKuSUxgnNSAO9UzyQZMyg24Z8kidtwzFNTLLX32OejScCyaRop9fdOT4KTF1ROvU832vx5OOrkHmYqR9JkGBfEJxpCSteXGIx7WR3UBauRWGT0eMZ+N8fESnp8kMTILJnclm1VpMQ/Uu7/xfG8LhsHGN43pc+uxjWUvBV1IXBCbVC2eLOdx2SeJYQ1jDoHvRcT0uffaprO3gaYSBQ29VR8KzlwFXJHJPy1sM0fJbrmsd1uPKX5/KYXfhMwbuvFdxxpN9F1dkzhIi5uvsVw7rceWvD+W8Cl7OFHirhbonvOSKLHciuiD0uzFRj0PaIkf1uPC1yjK42Mkb7n2AV5I0Cotzlq8bPpUOB7rHGSakcQTGkZ4kw5HwSeBk4GiAv8jRBOGrihvYuc41A6h8yA4fukieBtSlsJIUfAqy/8RGy1FI8FnHWOC+UXZByz6ntBJgzKRKZUAZUAaUAWVAGUjNQDv1Gxj0JCHyOwR9WvUHYHiCwfgJ6JYY9LaqaPns53E6g+X/3rYwtc/OgDTUzl7inpwtfJjKpt6FtFBIkeW78NFYRi3WUoyeq9ILBrQBeXEZ6utEOzUgaZfkG/W9PP573k4NSFqddvnze/5f0ZI9bJcGxJ88+YHAHReAVQpiQHrsF1RdqmK5L+gkYBDQN0WOQ2BzBsBPk/zWpFSdGwZ8akDjEdK3gaPchNZRCn+pYqbD8upWVO9Oh7cX5bgPr7BeCI4/b8tVeZeNh5xdBmzlQYPkeMTK1XvucNjWCR7fDZwAtJWwAfMn/k2TaHl1tzpkqiX4SL0L4Q8XmOLlEzmtkMvrAW4DMZVFHfcV3QTk2X6D7P7IVXBFCjarngReDbhcpmkJflLvQiajEFO8/JW4tMLlGlMZJl1bvNYHIuD/WARtIiKs24myuBV2OOBaWigwXFdwTL0Lyfv9u3PhROBT2s+JLhyvshM9AQHwGx8mWQbl/QD/yUqS8KfangceA3hcR3kUTm8C+huc55OFi8RPAXy6moQDEFu5BhnYL2KDq6U8DK9Nd8sc6Ht4FlFL8JV6V+L6+3cmbqM6PvlySZWjsMGC51+Dnls6mybfQ8DPlhw0t5HkkiobkLQ5vqkzxxxynwWkeW3nuuihzNLka8gk/rDKBiTVzaFmU2U5Ah8F8LMM4URrLpEuYq5CU2Q+JsaGXxdqsqxA8JwMnAKsLpgI/jhGLil7FMa5menA12O85vefrgOuAJr6NOKUxM2dSPP9u/NhG3dTIrmLcFS3tIvWc8VP4F90JCCd/9ijWFqC39T7IGPhBG82icuonran+eC4jQ+fswgwCPizNhUUaNsSfKfeF5kKRwLekj6v9MXptH6wr7XSIsCAgFXIw9de1dKCA4FP4U/qfZKJcGYLEPYxfPwq0r4E1E5GwONwIDbHzFulTEDl6wGTz9RPBHySQ+HMN4B5wBpgLTAfoE6aOkGS33IB3DNdgDQ6dhCrED41bwfS+Eg7H56UpfNU1jA+z4RVnrx5CG0hs/RFxWi5tLsmqtRzdwxMRlFp7mSTTRXv7PfDX36bw+SPpHsd9kOARklZTyCuNmeVRVkz5sh3IfJ2t8zPObWqXreWrtbTnBOE0t0r6ZdUFOqyDL4yBuZTKYiBcShXaigmPSe7Ti3Il6Ri+Y9lTT4l6bhBTqVABrg8kXQRgvQqJ7u2WvgZ+MtPzsGoFMwAO9TcORgmPnzMi1BFxzkcNl+dYZ/SHlf1yg373ohjfpN0GrAQ+BewrvP4Unz6MNn1LfiRttGE7a5FPhVloBs3/Nv2g7YhD/OpKAMdDNjOnusQXhtOFwYuhyZpmwTT+TpWUQaMDIyFlpOZ4b5OcEz9ycZcDVE2cgEw47U9AvlGAlzt5l7ix4HVgIoyoAwoA8qAMqAMKAPKgDKgDCgDyoAyoAwoA8qAMqAMKAPKgDKgDBTGwP8AGhFedjFBfD0AAAAASUVORK5CYII=;" vertex="1" parent="1">
          <mxGeometry x="334" y="340" width="144" height="144" as="geometry" />
        </mxCell>
        <mxCell id="hi-wKvY39Key3fGmXc2b-198" value="" style="shape=image;verticalLabelPosition=bottom;labelBackgroundColor=default;verticalAlign=top;aspect=fixed;imageAspect=0;image=data:image/png,iVBORw0KGgoAAAANSUhEUgAAAJAAAACQCAYAAADnRuK4AAAAAXNSR0IArs4c6QAAAHhlWElmTU0AKgAAAAgABAEaAAUAAAABAAAAPgEbAAUAAAABAAAARgEoAAMAAAABAAIAAIdpAAQAAAABAAAATgAAAAAAAACQAAAAAQAAAJAAAAABAAOgAQADAAAAAQABAACgAgAEAAAAAQAAAJCgAwAEAAAAAQAAAJAAAAAA7bKyKQAAAAlwSFlzAAAWJQAAFiUBSVIk8AAAGcxJREFUeAHtnAe4nUW1hgUJPUCooSaEJkgLHSmJEEGF0BFEuBEuiEqVAEq7hEvzwlXkIlVKBEWaFOlNijTpRQwCIYQSpIYSagj3fi/s8Q6Ltf6990nO2eecPet5vmdm1nxrZv71z55ZM/9JvvSlIsUDxQPFA8UDxQPFA8UDxQPFA8UDxQPFA8UDxQPFA8UDxQPFA8UDxQPFA53pgek6s/Ee2vb0Gnd/YRFhQaGvMGsNsyn9svCJ8LEwSXhbeEq4W2g7aecJNIve9leFFYUVaulSSpk0MwjNyhUy2E74sFnDwu8ZHmAVGSYcJdwh8KL/dxrjALVXpBd5YF49yy7C1UJnTBg7AS/vRb5r6FE6slQ31HALSWxN3xFGCOsLxCxdJc92VUeln2nvAeKYk4SJgl0ZuqL8kvolfmor6Q0r0AZ6YwcLG07DN/eO2nqhhjeUviu8VwMnsJlrmEnpjMJzwskCk6hID/HAcI2To/PUrC5MjhuEXwhseYOFOYQivdgDa+nZ7hI6MnG4s7lM2EdYWeDOp0ibeGAxPef5AltIM5PnNfHPFjYV2HKKtKEHOFURgzQ6caaIe62wpdAb4jw9RveUnnATzV0OQSrH83rypginCGcI4+uRTX0/lZcXlhAG1cCqN6dAXAT6Ckxi7pQ+qqUp4H5eZQJv0jHCQwKfOoq02APfUv/1Vp5/ivNTgRfcqKwg4h7CucI/hGa3xnpjor0nBLbdnwh8NinSAg8Q7EYvixVnf6GR1Ymj97cFVihWp6jNztSzkp4ubCHwaaVIF3ngUvWTv9jJKv9aYHurJ6uLcKrAZMvbaHWeE+GZwjpCkU72QB+1v5dwkXCi8BWhSliR2J4eE1o9URrp/0mN8wChnBLlhFYKAe9BwstCIy+uu3Fu1Lh7wsFGw/xMetRg06CdlBWHX/BIYWpukjlFPSqME56p4RWlnLQSmHSsFIC4aj6BPz5buJYuo3SwsIDQERkqo9s6YlhsOuaB78qM4LQjq8mDsjtWIKhdUJiWQnubCEcLDwiNnvJ2ELdIF3iAY3GznzT4M9Srhd2EhYSulPnV2U7CH4UPBW/CczgYIBTpRA9Mr7YPFD4QvJfg6biP4Z5oWq8yarJDMresCPLvE9J4eZ5dhR4lPS0GWlLe/a3wtQa9TCzBFnV9g/ycxooxSGDSEef0FYi18Bnb0bsCcdGrAkE72+hLQrOytAwWFx4WaKdIJ3lguNpt9C7nWnHXbmIcBMAjhJOEWwQC57QyNJMyoYh3fiPsLrDNFmmxB/jFHy40EoQ+Lt7GDYyXbXCYwJ0SNs1Mkma5fGY5T9hKKLfPckJXClvG5UK9l8Yvfy9hBqFK2C44FfHBs16bnVHPtneusIHAD6NIJ3qAS8G/CPVe5C3iDBSq5OuqvFmo11ZX1v9d42Gb40dSZBp7gACWP4eoeqGcWvYRqn7J31L9nXXaqeqjK+oIvHkOLiV7nFQ5v1UP018d3yaw3UTyoiq2Fv4aEJaR/mRhw6C+EfVHIj0p8IJfr+EtpWyTfWroq5TJzp0SJ8TZhI4Kp7gDhQs72kCx++yPtx6RI6p++berPvpMQJBKjPNhnTa89gmmfyVsKywr1IunRPmC8EljM+FIge2XSej1VaW7VTZLCUWa9MAs4teLef4gDr9+T1aTcqxQ9XLyOk51rHS7CqwgnSGzq9FthPMFAui8/6r8++LuL3THHULD6n4yvYb0J6HKqaeqHp4nxBCNrjoviztKWFzoSuEj724CH2urnjOvu0FctvQidTzAkp87zuZ/HtjPKf1ldWxTW8+Lt7fAStdqGaYB1Ftt07gniLtWqwfcnfsnZqi6JCQY9oTlnXgoOTpK3xZnP2FGoRGZR6QNhZHCecKtAkdu/nkQMc17Am0SWD8h3CicJRwgDBHYthqVjUX8mxCNPek/EIcPsUWMBwgWqz5PEPNE29YqqksOjtILxGkkvlldvFECHzerJnPUT66fojbuFw4TVhTqyQwi7CtMEvJ2bJ5xERcVqXngy0p5YdZRqXyz6qKAmSaGColrU1aH4UKVzK1KXhyri7WflmVWKfqZS6gSYrI7hHp9H1XVSDvVHVThrPGqm7eOM4hl+M5kHc5LWLTClisAvoFx0rG2nVlm6/u1sKAQCavRL4V64xgVNdAuer5Ss697jkK/WoOOWFO8sbV2OIUdI/ASPCE2oX6S4PXbVTom0vFC1Yq0jeqJs6rGxMmzLYWY5l4hcs7ugVcImtn2rKAfIFQFrwSrzwpRn63QT9B4mCiRrKAKrhyisU1RHbfxbSff1xNHTrnO8QaThl/sOwKnoIuEfkIjws30OULUX6R/VTZXCkcL2wnrCl8R5hfYAtkiOQAMFXYSjhQY+2tC1Gak5xoiep5lVPdCRZtcTjYSqIvWO4QXGjnkLdXxYqxwB2Sdf4UlOeVB0j3i2Nq2UnmsuEcIbIuskh0RVkO23/8UmgnOx9XslHxBeA7q0zht+rTqqrbDLzTYkxX/UeGIXZ0HGyLdFMeGI21fh59UX1fmDcE62ytfLt4wgZc/rWU9NXi+wB/ze33nOmK/7wmeMImqVjdWyl4v8+oJ2YZyp6X8/dLbF8gt8/iAzwthNfPk21K+L6S2o/QacVb1GugE3dJqk4lU746J+ig4HqI6tnDvebytX9TeJaP0ON7DoxsqWDlVioj/e0uulbdUWu+b2IviwGtEuCpYQ9hRGCkcWwMxD+VtBSbhjEIjsrZIjwrRcyX9YUFjrNKJk6cnBvxeo+ZFEJjmD53yVzhPyS2zt3VhQwzFJaAVtgu2gdSul3IzzcpWJYNVeYTAqtjI1kM/rHh3CgcLrDZV0keVxEjR86Vx7xE08l/SJw7p8wL/KKBXy4/1dPlDpzxL9vLmydnK7q7gf8PwKS4lVMUIk1W/H8RAeKn/LjwgpLFNTXqX2mF1+rIQyUaqiH5U9M0Eow1PNpXyJOEAoZ9H6G26J/VA3gshDrGypRQeFx3bmpXZpHhCiGxYHXB4JASuY4XIfmr0Y9TuJlHH0jPxnxGiPiapbjmhrYXTUuSgocYzrD4PB3x+rd7WdUbAp09ewIaCJwOlvFGIxjYt9WzT8wue9Jfyb0LUH5Nwds+wXXRMigmCddC9jgO2cnjJ7gcOf/MKPvELJzJPhkv5lpDa7oqUW+VoMi+kunEV4zlNdW0tW+vp86DxHZVXdzxyu3Tey3xa+hkMn1/lSwGfNn5k+Kn4M2XqHafTGD4QlzGdIOwlfEdgkpPuLaC/Q4CXbKpSYrHdBE/YziYKnj3jXcczaifdanpYjsGHCgMFK8tL4TkP3QhLVvmoCv5oh4/qSCHqI+l5WWxtBLCNbh3wmFQ3CKmdqnRf8TzZVMpocj+uOvsj8tpoW93JenLP6c9Jb08zi0lHcOzxCYiJu6wcKIXHz3XXibOyNWyyvJL4tJO36+Wjlei/K2x3aXIsbUPnl/Va4LhDHC+cEnB5UUMdPie76JeNzevCdx27qVFtL+OqzykfqX59p4NZpYtOhc+oro9j0/aqb8gD3q8UJy9gvMNJ7N2Af4nhUmS1elPw2kf3mDBIaEQ4EDSzjSwuftUJi8B6Pqfjb0kXjXeEw2971emBw652PHNQwGWy8cKs/FmK6GVwEuxnDbIyk3dP4XLhWYE+aIuU1eBS4ceCneRS/UvmVO4+IRrDxf9ifj7zl8CGS8oixgPjVfYcvLPhUYyW93Md7nbSee2i+4cQTZ4BqhstpAkTtZH0H4p7jrCo4An9PCEkvk2964YNKvhf9TppVx3bh3UoZe5x7MXhKgEXvg1+Z5RuXMDnGmEpwZMfSskFpDemejq2Vu++in6WEd4WvDYekX56wcrfpfD4x1hiO5d3CZzEsm+FawDPod6yPiLgYh+95JMrbLx+Ix1/BOcJkzOy4a7Myn5SePwHLbGdy1H8c7zjlCgg3dfhPiSd53wm5nQO/7iA77XRiO4kpw/6Je7y7InVrLAletxPpO9vye1aZvXwnLSFcchcKuM4y0W3iOGu4PCS3TDDpVi1MiS7jqTeShedOGl/SWds0Y9mG4fbdip+kVFcQGyUy8YqeC9xTE6q5Y8IuBzZrSwmBbGL1zY6YrELhU2F+YQZhfmFbwq/E6iPbIm1vMA6mhT7i2/lf6Tw2ucZ214Wlgc850ySnsmVy+EqeNyzclItH20TIx3uaOm8dtE9LawuVMlgVVadsM52jKPY5laHu6t03vi4Qmh74eV4zuFUYuU8KTzuboY4s8rR8XsJwyWOiLhMngUNPyqyMkWTiCM+K1YubFXes7wrvf1ss1bAfThvsFV57+jYlWNZKOhsgqNnq/HkKaNcUeU+RkfxJWGs0W+tssclrtpewKYReVUk7pzYzqyw5dl4hcnpPeOs0i9rGvB4UOY2vJYUWz2Bohtc78VFE2i88dxAU05F7+i7Yao0KTHP/UaHrzYX+DZHaoVVEztPhjlKTomesDrlMjEvZPl+Wb5l2Rla1vNnHc8U9E/waYVtwpPnjTKaaM8ZHkXiF0/Oc5QXSLdtpr9YeVYpVqskv1Pme6mQpStn+ZS1Ez/p7aqML1jZ7LuaXTr8xxbZMmn1CsTy7slkRxmN1W4bHPc9ecVRLuzoUNnVhxUnnzxwKA8nkwnBuydeP2x7nszjKCOud8JzzDtPFb2Uzuvx8y1HE8hOCqzsqezzLf1/iV+mJ+86ShuwJsprKVNLuVfyZCWj5ErCE57Tjj9fuXIby6NuXE7I8qtn+ZZkWz2B7LKcnOBNoEbHGk0grgasRC/RTqyIx4kvF8btjR2OHT+nME88fRQvbeE10JU6+1Bd2Td9cYT2xDsZNTrWaFXzYoUpXufS2QnkbamYejHce0GbfY3eu6qA4h3PbzS2qcgE8rbHVN/paaMvpbMG4r1U+rK/bHTRS7STzfsFY+9tDdEEsm1+QAOOzObovJUOmj01XSWdPbVRvhKykZtU9g4W/FiONdwuLfakCeQ5EGfNYTzWzAR6w9imog1kbUyUeN41xIRUaVIb8LItcorbTDikln5XqSfEb7/3KqTbSdgxqOt0dasnULTce3FMNIHmNF6KVgsu6axEE2M+Q3zZlFOxf8pk6YtZPs8ukRey/JXKHyOQRpMf+vFCtAqfozomYpdLqyfQ68ETz+voowlkV6BGeXQRHY8bnUADnXE+6ehQrRjoG1U/I+LJAZnDCNvf8kF9p6lbPYGiFaCZCWRji+go7d0PeXdDOHsx4/GxKnsnMVYg2//fjG0qrpYyU5Gy1T0d2BM3/iCo6zR1T5pA0TaysPFONCnsDS9mTxnbVFwmZWop2+J4o0vF5VKmlj5oyqm4hjKzpEIHU7b8rYRJgb096QW0aadu9QR6KXgUXrY9Sr8QcG1wWtWmbSLabuwEws77uyP0TIxcHlfhjVxRy3NiGurok4rnHSGwTe0nRJPhMdUxid4XrPzJKtqhTBxC8GgxwDz8SIeDzamGt2rA81aQiDvOtElxlGDHSPkSwcplUnjcMywxK59vbB5QOZpEmA0ReCb6YTIdKrSl3Kun9pyNg3LZTgWPd1VOUp5TmccjhpnVcGdXeUrAn99wvxHw2FrtHdMuAfd16WcSrKwnhTfmKGhO9uwgAwX7XKm+LdKL9JSe80aYp1874HlxzD8D7mDTJsVHA679TMBq8HHAXVP6XOZTIeJunxNreZ7V8wGTfl2H321UrY6BcIS3taC3sc0TKB0ZJJ0NTiPuKo793Y4OFRM2l3dUuCdXZPnNsjxZtuXrjS4V902ZLE2rcKb6NMvKdqZgn8/yWlbuDhPoueDp7VF6ongTHC7PsJzRRych7ygdTSC2LCtXWkWtvK2jP9vRoWK1GkomkzHKM1E8IaD/pVdRdJ95YHMl3vJ9jeOgGwPu9w13h4DHdmVlkBRe/+gWMeRlK7h2q+kjLj8Or21v0hK7cYvt8dFtKRRxPMCq4DmNU4iVX0nhcY8zRD4beDxiinkNl+LfBY+/u8N9OOCe43B/EnDpy/vuxVbojQPdG8KSQhHjgaVU9pw21vAoctPqcb37j+cDrrfd8J3Ja/cG6a3sI4XH5bKxvyFzyosCeuIkgm0rbGVe++geF6qO9rattiizTXgO84Lr9QOudyF4XsA91/HqkIDLEd9uY6xgHwb8o6W38iMpvOdDd6ElqzyrQEwU2VyhuumFIjUPEAB7zvImBXczHney9HxQzGVHFTwudzHc+uZCmQDd4x+cE2v50QH3TennqXFSwriiqwL62yoRs3Ql5d8XvPGgOy3jtn32m4GjvEATZ/GSPMfaY//c4n0ccNeV3gpxlNcu90wcp3P5qgrEUx7/Fzmxll9daTSWV1S3kGMT/QBSn6Mcm7ZUHaWnTk7JU7YgTx6TMuelPMdjK7dKkerz1NtqopUQO06KVq6SIm8z5YmFlrBklaM4C7tbBbsqSlVpg90wSO0sLO/RUZdg1ZM7pEwvK0+HOuQDAq53wsP83oBPn1ZWliJahW5VnV21uAxkNcvHnOePVJ0VJlU0UbH9jTVot/JP9cC5E/M8dy6e3C5lzkt579e4QsBlO5nZaXyHgE8f6zj88yr4P3b460kXbWUE7Bs5NrNKd5eQnjNPT3H4baPaRE/6UeCYv1Z44aHAZq3AZmLAX83hsyJy+stfUsrf5vAHSPduwOfTx0DBymFSpDZtyl3P0tZAZeI5e1c1Wbo1HG5bqHbWU0ZHYZzqxRzJMZyirOMpc5/kSbRifd8jS1d1+TfcsWGr9caD7iaHzxEcfWTDNmdPcjTDCfS3wnjhTmEDoe2EOGC0EDkP/W3CdIInA6T0bNkWZvQMpCNO8Gy84zlNcPnHJZ9nw0Ueq1QuTIi/CB4f3V45uZbnwjG6YMQGH0TPU2uiPZNr9diRo9FzRB9Q4Zp/C+zHVNhw4vL6PLHCZu/AhnYOcuxY/d4LbFhpve2SFYRtyBsbuvMFJmeRmge4O4mchZ4XMKTGjZI/qMJr4+zIQPoDO2DTRzZjAzuO6V6APzLgM95xQj/BCt/avOdJOlbPaDW2bfX68pAKZ72lOu8UlTtlXhV4ecm5ebp9TjT5nwU2ZxmeLW4X2NEvl5x2daB8Z4XNFarz5AQp82ex+aqV0muv1+o4jr7iOOtJ6ZZr4KnZOqxzKb8vzFlhf0Rgd0aFTaq6LrClX1YcK4tJEQX52OxvDVRm4l0peM+WdEc5dm2pWldP/ULNWQS+pwuzCfWE1Sf6hFFvJYmCaGKjesKEeFtILzJP2XKJfaxwPfGJkHNTnmem3gqB+z1C4nnp2taoXcucYoghuNtoVFgtPKeiG1ynkVsC2z3r2KXqHwb29M19FfGSlWOliMb7juq8Mc8l/UMVdoeqrkgHPLC5bKKX8ec67RGATgzsN6pjm6ppI5qEjOuERMxSPkHcJkTjflF1i2b8lGWl5arAs9s1kUrauAfYIqKYgu1gpTpNUe+9DHTz17HNq5dQIbpxpq0tc3Itv5DSCULU/6Oqm6PGzZP+KhAX5nZPqcw2V6QJDywgbnSUxrmnNtBWFHiPa8DWUrgQzF9qnmeVW9waqLyqMEnIuXn+ZtVxuWplHil+LlwjHC/MJxRpwgP8escIubPz/DjVETPUk8dEyO1SnuC9I3KpjFIbNr1Pdd7t8XDpp1TY3aC6mYUi08gD/dQOS7Z9Qan8kerWbKCvr1W0wUvtiDBpnxHSWGx6ZtBo1epFG9cKMwW2Rd2kBw4R376YvPyjBtuL7nBek713cmqw2U8/S3xYMUYuLj0h2M6fw+avUr23gnltFV2FB0arzjo3lY+usMur1qpo48Sc2MF81bcy7oC2ddrlwvB8IT2Ll/7RsSuqJj2wR+DkZl78LUEbxCKDmhxPRL8k6IOJ8b7gbbMc7y+ssMN2mFBkKjzA9nK9kH6hHNcPb6K9EZltaiOlFzTRTj0qx+qHKvp6WXUDBStcpFZNvn2sQSk37wEu7zYQdhG+0oT5AHGjTx6TVce90rSUhdXYC0KaoDblMMCJ0go/kssFy6c8VCjSAg8QgN4jeC8F3a8aGBOrw9LC+sK6wpLC9EKVDFZl1V3PGNUv4DTAeO21wGiHV1Rd5AGcH00eVom+FeMYqrqLBW/14tT2e8GLaaT+VLgWqLrr4T6KzxRWWGm/KewvDLOVpdx1HjhaXUWTh1PRxsFQuD2+pcLWtnmluHxq8ITYxfLzMvESd1xFupkHDtN48hdl8ycE42XVeKuOrW2L8qsC25snR0np2SQdt9WzeYZF1xoP7Kxu08vx0jtUT8BqZRspuNH2bBrR8WGVIN+T46WsamOUZ1R0rfHAw+o2ell8cvC+uK8hfdVNctSe1U9UO0sKnnBnZfmpfINnUHSt8QCTJL2YPOVPZ5dxhjSXdOMDm2TPxOAe6kYh+mvExGUCeyuc1J/+DxqJl6dnUFmke3iA+CZ/OeRfF1YOhle1MnwgG05D+UdN/tTiEGGyYPtJ5ZGq84QT1llC4qWx8bdFRbqJB/hD/cuF9JIeV37FYGysSNFEIKZZL7BDvZHABEv95CmrVNWf5+6g+t8KxwkDhCLd0AODNCZWHb41RXKaKvIXn+e3iowy/S4V9gdnvJLthR6YS8/EKpNPmpTnkrBRuVbEZJenE6Svd2PdaB+F1w09sIXGlL/wlGdLG9DEeFcK2qG9RZtop1B7mAf4XJAmTZ5e3IHnuMlp6x3p8uC7A80Wk+7sAT5cPizkk+cjlVlRmpXBMmDC5G3t2Wwjhd/zPLCwhky887RwizBE6KgQtB8pcI0wVChSPFA8UDxQPFA8UDxQPFA8UDxQPFA8UDxQPFA8UDxQPFA8UDxQPFA8UDxQPNApHvg/919otn5AUzsAAAAASUVORK5CYII=;" vertex="1" parent="1">
          <mxGeometry x="510" y="170" width="144" height="144" as="geometry" />
        </mxCell>
        <mxCell id="hi-wKvY39Key3fGmXc2b-200" value="" style="shape=image;verticalLabelPosition=bottom;labelBackgroundColor=default;verticalAlign=top;aspect=fixed;imageAspect=0;image=data:image/png,iVBORw0KGgoAAAANSUhEUgAAAJAAAACQCAYAAADnRuK4AAAAAXNSR0IArs4c6QAAAHhlWElmTU0AKgAAAAgABAEaAAUAAAABAAAAPgEbAAUAAAABAAAARgEoAAMAAAABAAIAAIdpAAQAAAABAAAATgAAAAAAAACQAAAAAQAAAJAAAAABAAOgAQADAAAAAQABAACgAgAEAAAAAQAAAJCgAwAEAAAAAQAAAJAAAAAA7bKyKQAAAAlwSFlzAAAWJQAAFiUBSVIk8AAAA81JREFUeAHt3D1uFTEUBlBAKBVsgF2kyyJYApRUWRbsJalIxUZIqjRgixRRothc44d/5oxkQfDM+PrcT5OXpxdevXIQIECAAAECBAgQIECAAAECBAgQIECAAAECBAgQIECAAAECBAgQIECAAAECBAgQIECAAAECBAgQIECAAAECBAgQIECAAAECBAgQINBf4Czd8jKNqzRu0/hlLGXw86F3uYe5l//1+JBW+56G0OxhkHuZexo+Xoev+JPW63TdecO1LplX4CaVdpHGfaTEN5GTH879kv4Unga4yS/JPc29DR0tAfocWsHJKwl8ihbb8i0sv2B+F13I+UsI3KUq30cqbQlQfuHs2FcglImWb2H70tlZWECAwmQueCzw9vEXHf8eegx2XNetygLdX354ApXBzVYEBKgCZLosIEBlH7MVAQGqAJkuCwhQ2cdsRUCAKkCmywICVPYxWxEQoAqQ6bKAAJV9zFYEBKgCZLosIEBlH7MVAQGqAJkuCwhQ2cdsRUCAKkCmywICVPYxWxEQoAqQ6bKAAJV9zFYEBKgCZLosIEBlH7MVAQGqAJkuCwhQ2cdsRUCAKkCmywICVPYxWxE41e+Fdf/9o8o+TA8S8AQaBL/LsgK0SycH7UOABsHvsqwA7dLJQfsQoEHwuywrQLt0ctA+BGgQ/C7LCtAunRy0DwEaBL/LsgK0SycH7UOABsHvsqwA7dLJQfsQoEHwuywrQLt0ctA+BGgQ/C7LCtAunRy0DwEaBL/Lsqf6RKL/qX7OhHT/pKgn0JyNXqYqAVqmVXMWKkBz9mWZqgRomVbNWagAzdmXZaoSoGVaNWehAjRnX5apSoCWadWchZ7qjcS/2W33N7WeLPrSm5nRdV+6z5PljvmlJ9Ax+95t1wLUjfKYNxKgY/a9264FqBvlMW8kQMfse7ddj/wpbNRPN6PW7da0mW7kCTRTNxasRYAWbNpMJQvQTN1YsBYBWrBpM5UsQDN1Y8FaBGjBps1UsgDN1I0FaxGgBZs2U8mneiMx+pGJmUzUEhDwBApgOfW5gAA9N/EvAYGWAN0F7u/UtQRuo+W2BOhHdBHnLyMQ7m1LgL4uw6HQqMC36AUtH204S4tcp3EeXcz5UwvcpOou0riPVNnyBMoLfEwjL+jYQyD3Mvc0FJ5/3Xp+El2mkZ9G+cVXfu/HWMcg9+wqjdzD3EsHAQIECBAgQIAAAQIECBAgQIAAAQIECBAgQIAAAQIECBAgQIAAAQIECBAgQIAAAQIECBAgQIAAAQIECBAgQIAAAQIECBAgQIAAAQJdBX4DK4Zt07D9D6sAAAAASUVORK5CYII=;" vertex="1" parent="1">
          <mxGeometry x="190" y="170" width="144" height="144" as="geometry" />
        </mxCell>
      </root>
    </mxGraphModel>
  </diagram>
</mxfile>
